<?xml version="1.0" encoding="iso-8859-1"?>
<!-- Generator: Adobe Illustrator 16.0.0, SVG Export Plug-In . SVG Version: 6.00 Build 0)  -->
<!DOCTYPE svg PUBLIC "-//W3C//DTD SVG 1.1//EN" "http://www.w3.org/Graphics/SVG/1.1/DTD/svg11.dtd">
<svg version="1.1" id="Capa_1" xmlns="http://www.w3.org/2000/svg" xmlns:xlink="http://www.w3.org/1999/xlink" x="0px" y="0px"
	 width="568.461px" height="568.461px" viewBox="0 0 568.461 568.461" style="enable-background:new 0 0 568.461 568.461;"
	 xml:space="preserve">
<g>
	<g>
		<path d="M396.721,0C304.13,0,229.078,75.051,229.078,167.634c0,16.078,2.42,31.541,6.645,46.261c-0.018,0-0.147,0.052-0.147,0.052
			s7.165,19.214-8.44,35.378c-0.017,0-0.017,0-0.017,0L19.325,464.361c0,0-15.236,14.729-15.236,37.942v15.927v14.868v18.719
			c0.134,5.049,2.186,23.664,25.546,13.81c0.035-0.034,0.065-0.034,0.1-0.052l55.443-23.369
			c17.323-7.321,19.119-24.965,19.127-24.999l0.516-5.292c0-0.018,0-0.018,0-0.018c1.453-15.076,11.988-20.854,17.354-22.849
			l3.11-0.937h0.017l1.396-0.434h-0.008l52.22-15.545c0.009,0,0.009,0,0.009,0c9.238-2.775,8.696-13.099,8.401-15.805l-0.086-0.659
			v-0.035l-2.086-16.256c-1.405-11.017,8.987-12.022,8.987-12.022l13.138-1.856c8.354-1.145,9.056-9.594,9.082-11.814v-8.887
			c0-6.229,4.901-7.911,7.729-8.354l1.943-0.209h0.035l26.648-2.706c11.928-1.231,14.712-9.576,15.371-13.506v-37.695
			c0.035-2.107,0.599-10.088,7.191-3.973l7.573,7c3.227,2.359,9.793,4.875,18.243-4.562l6.089-6.767
			c0.009-0.017,0.026-0.017,0.035-0.034c12.769-13.125,26.665-10.704,32.373-8.917c0.521,0.19,1.059,0.364,1.588,0.546
			c0.685,0.269,1.153,0.469,1.153,0.469l0.061-0.096c17.046,5.907,35.279,9.282,54.354,9.282
			c92.582,0,167.634-75.052,167.634-167.644C564.354,75.051,489.304,0,396.721,0L396.721,0z"/>
	</g>
</g>
<g>
</g>
<g>
</g>
<g>
</g>
<g>
</g>
<g>
</g>
<g>
</g>
<g>
</g>
<g>
</g>
<g>
</g>
<g>
</g>
<g>
</g>
<g>
</g>
<g>
</g>
<g>
</g>
<g>
</g>
</svg>
